name Walk10.mot
datacolumns 19
datarows 22
range 1.49000000 1.51100000
endheader

                time	   L_ground_force_vx	   L_ground_force_vy	   L_ground_force_vz	   L_ground_force_px	   L_ground_force_py	   L_ground_force_pz	   R_ground_force_vx	   R_ground_force_vy	   R_ground_force_vz	   R_ground_force_px	   R_ground_force_py	   R_ground_force_pz	   L_ground_torque_x	   L_ground_torque_y	   L_ground_torque_z	   R_ground_torque_x	   R_ground_torque_y	   R_ground_torque_z	
          1.49000000	          0.00000000	          0.00000000	          0.00000000	          0.00000000	          0.00000000	          0.00000000	         35.14673377	        696.51685313	         -6.70401426	         -0.10679472	          0.00000000	          0.37940256	          0.00000000	          0.00000000	          0.00000000	          0.00000000	          0.11211300	          0.00000000	
          1.49100000	          0.00000000	          0.00000000	          0.00000000	          0.00000000	          0.00000000	          0.00000000	         35.84320830	        698.80998516	         -6.62853255	         -0.10653427	          0.00000000	          0.37944686	          0.00000000	          0.00000000	          0.00000000	          0.00000000	          0.08541249	          0.00000000	
          1.49200000	          0.00000000	          0.00000000	          0.00000000	          0.00000000	          0.00000000	          0.00000000	         36.53294056	        701.04659860	         -6.57883862	         -0.10630627	          0.00000000	          0.37950093	          0.00000000	          0.00000000	          0.00000000	          0.00000000	          0.05575545	          0.00000000	
          1.49300000	          0.00000000	          0.00000000	          0.00000000	          0.00000000	          0.00000000	          0.00000000	         37.21384819	        703.24734945	         -6.54498167	         -0.10607538	          0.00000000	          0.37952302	          0.00000000	          0.00000000	          0.00000000	          0.00000000	          0.03287496	          0.00000000	
          1.49400000	          0.00000000	          0.00000000	          0.00000000	          0.00000000	          0.00000000	          0.00000000	         37.89296031	        705.41451010	         -6.51188598	         -0.10581144	          0.00000000	          0.37950331	          0.00000000	          0.00000000	          0.00000000	          0.00000000	          0.02389633	          0.00000000	
          1.49500000	          0.00000000	          0.00000000	          0.00000000	          0.00000000	          0.00000000	          0.00000000	         38.57542126	        707.52446625	         -6.47472482	         -0.10550226	          0.00000000	          0.37946599	          0.00000000	          0.00000000	          0.00000000	          0.00000000	          0.03003423	          0.00000000	
          1.49600000	          0.00000000	          0.00000000	          0.00000000	          0.00000000	          0.00000000	          0.00000000	         39.26123100	        709.56589424	         -6.44428599	         -0.10515131	          0.00000000	          0.37943365	          0.00000000	          0.00000000	          0.00000000	          0.00000000	          0.04537138	          0.00000000	
          1.49700000	          0.00000000	          0.00000000	          0.00000000	          0.00000000	          0.00000000	          0.00000000	         39.94910234	        711.55992881	         -6.43508223	         -0.10476910	          0.00000000	          0.37940784	          0.00000000	          0.00000000	          0.00000000	          0.00000000	          0.06033095	          0.00000000	
          1.49800000	          0.00000000	          0.00000000	          0.00000000	          0.00000000	          0.00000000	          0.00000000	         40.64029445	        713.52767991	         -6.45688128	         -0.10437009	          0.00000000	          0.37938021	          0.00000000	          0.00000000	          0.00000000	          0.00000000	          0.06516151	          0.00000000	
          1.49900000	          0.00000000	          0.00000000	          0.00000000	          0.00000000	          0.00000000	          0.00000000	         41.33868490	        715.47046783	         -6.51681326	         -0.10397143	          0.00000000	          0.37934044	          0.00000000	          0.00000000	          0.00000000	          0.00000000	          0.05128305	          0.00000000	
          1.50000000	          0.00000000	          0.00000000	          0.00000000	          0.00000000	          0.00000000	          0.00000000	         42.04367806	        717.36864163	         -6.61713997	         -0.10358535	          0.00000000	          0.37928401	          0.00000000	          0.00000000	          0.00000000	          0.00000000	          0.01536442	          0.00000000	
          1.50100000	          0.00000000	          0.00000000	          0.00000000	          0.00000000	          0.00000000	          0.00000000	         42.74858497	        719.17880768	         -6.75031634	         -0.10321152	          0.00000000	          0.37922082	          0.00000000	          0.00000000	          0.00000000	          0.00000000	         -0.03900081	          0.00000000	
          1.50200000	          0.00000000	          0.00000000	          0.00000000	          0.00000000	          0.00000000	          0.00000000	         43.45016323	        720.87587669	         -6.90079943	         -0.10284732	          0.00000000	          0.37915953	          0.00000000	          0.00000000	          0.00000000	          0.00000000	         -0.10663758	          0.00000000	
          1.50300000	          0.00000000	          0.00000000	          0.00000000	          0.00000000	          0.00000000	          0.00000000	         44.15424137	        722.50030151	         -7.05029101	         -0.10250754	          0.00000000	          0.37909262	          0.00000000	          0.00000000	          0.00000000	          0.00000000	         -0.18501731	          0.00000000	
          1.50400000	          0.00000000	          0.00000000	          0.00000000	          0.00000000	          0.00000000	          0.00000000	         44.87161011	        724.11665054	         -7.18600161	         -0.10222004	          0.00000000	          0.37901365	          0.00000000	          0.00000000	          0.00000000	          0.00000000	         -0.27280940	          0.00000000	
          1.50500000	          0.00000000	          0.00000000	          0.00000000	          0.00000000	          0.00000000	          0.00000000	         45.60895504	        725.74539403	         -7.30636094	         -0.10199293	          0.00000000	          0.37893669	          0.00000000	          0.00000000	          0.00000000	          0.00000000	         -0.36458794	          0.00000000	
          1.50600000	          0.00000000	          0.00000000	          0.00000000	          0.00000000	          0.00000000	          0.00000000	         46.36188754	        727.38366176	         -7.41336854	         -0.10180343	          0.00000000	          0.37887698	          0.00000000	          0.00000000	          0.00000000	          0.00000000	         -0.44757971	          0.00000000	
          1.50700000	          0.00000000	          0.00000000	          0.00000000	          0.00000000	          0.00000000	          0.00000000	         47.11902989	        729.05898830	         -7.50240331	         -0.10162657	          0.00000000	          0.37882222	          0.00000000	          0.00000000	          0.00000000	          0.00000000	         -0.50885024	          0.00000000	
          1.50800000	          0.00000000	          0.00000000	          0.00000000	          0.00000000	          0.00000000	          0.00000000	         47.87076781	        730.80636798	         -7.56394199	         -0.10144864	          0.00000000	          0.37874913	          0.00000000	          0.00000000	          0.00000000	          0.00000000	         -0.54436289	          0.00000000	
          1.50900000	          0.00000000	          0.00000000	          0.00000000	          0.00000000	          0.00000000	          0.00000000	         48.61302501	        732.61371655	         -7.59246789	         -0.10125197	          0.00000000	          0.37865544	          0.00000000	          0.00000000	          0.00000000	          0.00000000	         -0.55738759	          0.00000000	
          1.51000000	          0.00000000	          0.00000000	          0.00000000	          0.00000000	          0.00000000	          0.00000000	         49.35014235	        734.41542051	         -7.59404481	         -0.10101227	          0.00000000	          0.37856148	          0.00000000	          0.00000000	          0.00000000	          0.00000000	         -0.55501569	          0.00000000	
          1.51100000	          0.00000000	          0.00000000	          0.00000000	          0.00000000	          0.00000000	          0.00000000	         50.09324650	        736.12098622	         -7.58433952	         -0.10071159	          0.00000000	          0.37849868	          0.00000000	          0.00000000	          0.00000000	          0.00000000	         -0.54705156	          0.00000000	
